<svg width="40px" height="32px" viewBox="0 0 40 32" version="1.1" xmlns="http://www.w3.org/2000/svg" xmlns:xlink="http://www.w3.org/1999/xlink">
<title>Themesberg technology icon</title>
<g id="Themesberg-technology-icon" stroke="none" stroke-width="1" fill="none" fill-rule="evenodd">
<g id="Group" transform="translate(8.000000, 1.000000)" fill="#0C4B33" fill-rule="nonzero">
<path d="M10.9277846,0 L16,0 L16,22.3418806 C13.4018767,22.8141854 11.489188,23 9.41982864,23 C3.22480623,22.9937854 0,20.3339638 0,15.2256147 C0,10.3037016 3.42064465,7.10942987 8.7213382,7.10942987 C9.54385962,7.10942987 10.1705426,7.17157521 10.9277846,7.35801132 L10.9277846,0 Z M11.1055456,11.3842198 C10.5115024,11.1977837 10.0219063,11.1356382 9.39522333,11.1356382 C6.82973981,11.1356382 5.34789568,12.6395562 5.34789568,15.2751412 C5.34789568,17.8411233 6.76446036,19.2580377 9.36258352,19.2580377 C9.92398704,19.2580377 10.3809433,19.2275864 11.1055456,19.1343683 L11.1055456,11.3842198 Z" id="Shape"></path>
<path d="M24,8 L24,19.1549296 C24,22.9965634 23.7007156,24.8439436 22.8223812,26.4366197 C22.0026025,27.9679437 20.9225765,28.9334649 18.6909565,30 L14,27.8743662 C16.2316201,26.8772394 17.3116461,25.9959999 18.0013013,24.6512113 C18.7234873,23.2760563 18.9512037,21.6833803 18.9512037,17.4940846 L18.9512037,8 L24,8 L24,8 Z" id="Path"></path>
<polygon id="Path" points="19 0 24 0 24 5 19 5"></polygon>
</g>
</g>
</svg>
