<svg width="40px" height="32px" viewBox="0 0 40 32" version="1.1" xmlns="http://www.w3.org/2000/svg" xmlns:xlink="http://www.w3.org/1999/xlink">
<title>Flask technology icon</title>
<g id="Flask-technology-icon" stroke="none" stroke-width="1" fill="none" fill-rule="evenodd">
<g id="pocoo_flask-icon" transform="translate(4.000000, 1.000000)" fill="#000000" fill-rule="nonzero">
<path d="M9.86331184,26.7137624 C8.60503468,25.7048758 7.26424755,24.7401281 6.3483868,23.3802332 C4.41971608,20.9809749 2.93453648,18.2044352 1.91966376,15.2849698 C1.3059958,13.387002 1.09456399,11.3513633 0.304530951,9.52590928 C-0.522631573,8.20174573 0.446860662,6.75147136 1.87222052,6.33110198 C2.50651597,6.20709301 3.62143205,5.59545556 2.27445666,6.03263972 C1.06774824,6.93433204 0.9512029,5.21291943 2.18885256,5.10362339 C3.03457983,4.98802181 3.34399225,4.28390309 3.05520732,3.65124718 C2.14759757,3.04801711 5.25409822,2.38698626 3.69053415,1.48634486 C2.06302485,-0.30022501 5.96780953,-0.644927902 5.00450554,1.38755806 C4.77554035,2.94923031 7.73352305,1.09960503 7.04662748,2.90509152 C7.74486817,3.77210337 9.66013102,3.10266513 9.61165641,4.31858357 C10.6285919,4.39004636 10.9771965,5.26126191 11.9322495,5.32747008 C12.9223693,5.78251994 14.7138671,6.14088484 15.0500953,7.27693309 C14.0702893,8.06827845 11.7981708,5.64274712 11.6878137,7.83392252 C11.9848496,11.0707668 11.9085279,14.404296 13.0698558,17.4866544 C13.6195786,19.3520436 14.9521147,20.8212346 16.1536662,22.2746617 C17.3057118,23.697612 18.8661818,24.700193 20.4544988,25.5430336 C21.8489174,26.2135228 23.3526618,26.6570125 24.8718767,26.9365581 C25.4876074,26.4562861 26.5767391,24.6707672 27.536949,25.4232284 C27.5833609,26.2702727 25.6289058,27.1929835 27.4441253,27.0994513 C28.5115981,26.7715632 29.2510938,27.94019 30.1287937,26.8850629 C30.9384228,27.8624217 33.4910753,26.2618653 32.9165995,28.2575689 C32.1379116,28.7693686 31.0023681,28.4603971 30.2226488,29.1645159 C28.9365245,28.5097905 27.9123694,29.7498802 26.4890723,29.5932926 C24.9079749,29.8822966 23.3000617,29.9978982 21.6973054,30 C19.0672998,29.7898153 16.3826314,29.6994359 13.8815477,28.7662159 C12.4716585,28.3489993 11.096836,27.5313808 9.85918634,26.7127114 L9.86331184,26.7137624 Z M12.0838616,27.6942739 C13.4597155,28.2996059 14.8066909,28.9385673 16.312498,29.1319372 C18.7052873,29.4703346 21.1754297,29.9936945 23.5764701,29.5165752 C22.4894011,29.0163356 21.3662341,29.7109961 20.2832906,29.1592612 C18.9837585,29.4430106 17.6017164,29.0856966 16.2609292,28.9101924 C14.760279,28.229194 13.1399893,27.7604821 11.735257,26.8756046 C9.97882581,26.2219302 12.6428667,27.7142415 13.1172991,27.8350977 C14.2146818,28.4698555 11.9105907,27.5198206 11.5846762,27.2465806 C10.66469,26.7211188 10.5481447,26.8304149 11.4939153,27.364284 L12.0714851,27.6942739 L12.0838616,27.6942739 Z M9.46416982,25.8089173 C10.7977373,26.3133605 9.45798158,24.8525769 8.84843912,24.9366508 C8.57821894,24.4584806 7.81397027,24.1558147 8.35337925,23.8993894 C7.38388702,24.2419904 7.33850653,22.5962443 6.88367028,22.8316511 C5.85848381,22.5016612 6.48452826,21.3330343 5.26441197,20.6142026 C5.1530235,19.8575378 4.0515153,19.2028124 3.7008479,18.0625605 C3.54614169,17.4782471 2.45597861,15.8030751 3.12534081,17.3626455 C3.69465965,18.865466 4.69715588,20.1507454 5.5325694,21.4349739 C6.18027272,22.6582488 6.94555276,23.9361717 8.12544544,24.700193 C8.52355608,25.0890347 8.90722748,25.6849083 9.46829532,25.8068154 L9.46416982,25.8089173 Z M15.340943,28.3374391 C15.8875716,28.6884475 18.5299536,29.1067151 16.8756285,28.4814156 C16.5971574,28.5402673 13.8072888,27.6764082 15.340943,28.3374391 Z M9.30327537,23.3423999 C9.94272769,23.8426395 11.8879004,23.4054553 10.2830814,23.0439377 C9.55389942,22.6477395 7.9109195,22.3766013 9.03099244,23.2824973 L9.30224399,23.3423999 L9.30327537,23.3423999 Z M12.4046191,25.0175719 C13.9723087,25.469469 11.0875536,24.0086854 12.0178536,24.8494242 L12.2241286,24.9440073 L12.4046191,25.0154701 L12.4046191,25.0175719 Z M12.4190584,24.1726295 C13.5566647,24.3218606 11.0648634,23.3844369 12.1684343,24.0885556 L12.4190584,24.1726295 Z M16.3743804,26.650707 C17.4366964,26.004389 17.086029,28.1671895 18.1772234,26.8335676 C19.2529473,26.032764 17.2489862,27.8235375 18.5732713,26.9764932 C19.5324498,26.3228188 20.9485273,27.2865156 21.8427292,27.5996908 C22.486307,27.5681631 23.1113201,28.1671895 23.7713999,27.8025191 C25.0399908,27.4536125 21.2878496,27.2854647 22.2717811,26.6675217 C21.1104531,27.0122246 20.2523494,26.2576616 19.6799364,25.4988948 C18.3762788,25.1920252 16.8704717,24.5131286 16.2196742,23.3381962 C15.9546109,22.8968084 16.6012829,23.4012516 15.990709,22.6792672 C15.2068643,21.967792 14.8149419,21.1596319 14.286878,20.293671 C13.6577394,19.9521209 13.5824491,18.9442853 13.5195352,20.2600414 C13.5246921,19.4298119 12.759412,18.8696697 12.5706705,19.1019238 C12.5675764,18.303222 13.3906134,18.7025729 12.8140749,18.1119539 C12.6903099,17.2817244 12.2818856,16.4199671 12.1601833,15.4825434 C11.969379,15.0306463 12.1333676,14.0637968 11.5104173,15.0863453 C11.2835148,16.1656437 11.4351269,13.7600799 11.7888884,14.5524762 C12.2530071,13.7432651 11.6218057,13.8378482 11.5970527,13.950297 C11.8992455,13.2671968 11.7888884,12.2982454 11.5176369,12.6681704 C11.6785313,11.9430332 11.7723864,10.0040795 11.2773266,10.3477314 C11.5764252,9.59106653 11.8466454,6.88283679 10.5429878,7.91484363 C10.0149239,7.92220009 9.10112592,8.11031539 8.66897992,8.32890747 C10.0231749,9.08977605 8.53283845,8.60424941 7.9800216,8.48234229 C7.90782537,9.186461 7.36119677,8.8816932 6.68048946,8.88904967 C7.77168391,9.02566972 6.14933148,10.024047 5.52534978,9.63730717 C4.7126265,10.0324544 6.22668458,11.0203224 5.5408204,11.3261412 C5.62539312,11.7853947 4.29595111,11.1600953 4.40011996,12.2236298 C3.61214967,11.8852324 4.29182561,13.4847379 4.68684213,12.9435124 C6.02762926,13.3134374 5.63055,14.156278 5.66458536,14.9581326 C5.44593392,15.4247426 4.58576741,13.8609685 5.47274966,13.9334822 C4.77141486,12.7743137 4.69921863,13.5131129 4.11649191,14.0532875 C3.9824132,14.0921717 5.6016715,14.8204616 4.58473603,15.1777756 C5.47893791,15.3185994 5.50472228,16.1162503 5.68624423,16.6196426 C6.22255908,17.190294 6.11220199,15.9890885 6.75577981,16.6753415 C6.3483868,16.0658059 4.60020665,14.9549798 6.00803314,15.309141 C6.00081352,14.6954017 5.75328359,14.1993659 6.18542959,14.210926 C6.6134501,13.4227334 5.73781297,16.1551344 6.70111695,15.1525534 C6.96721163,15.0337991 7.03425099,14.3643609 7.51280886,15.2156089 C8.20795542,15.913422 7.76446429,16.4178653 6.78259556,15.7789038 C6.95792926,16.3863376 8.09553557,16.6028278 7.88100963,17.5518117 C8.10791207,18.3872958 8.42454411,18.0793753 8.70095253,18.0310328 C8.90722748,18.8423457 9.04130619,18.2454212 9.05161994,17.8597323 C10.0438024,18.0762225 9.81071173,18.6741979 10.1221869,19.0914146 C10.8059883,19.4066916 9.14238091,16.9601418 10.3181481,18.3557681 C11.5527036,19.4907655 10.7822667,19.9668338 9.67353889,19.785024 C10.3748737,19.7272232 10.6017761,20.7518736 11.4784446,20.7150913 C12.2787914,21.103933 12.8192318,22.5930915 11.4413152,21.9719957 C10.9637887,21.5327097 9.26924,20.9904332 10.6533449,21.8248665 C11.9301868,22.4280965 12.9450595,22.7875123 14.1765209,23.5452281 C15.0573149,24.1757822 15.4378922,24.919836 15.7720576,25.0659144 C15.0315306,25.4263811 13.5401627,24.7779614 14.6375454,24.5793368 C13.9465243,24.4511242 13.1688678,24.095912 13.8310104,24.9723822 C14.394141,25.4516033 15.8246577,25.401159 16.08147,25.455807 C15.8648813,25.9434355 15.4904923,25.9812687 16.089721,26.0201529 C15.4213902,26.3837724 16.304247,26.4405223 16.3661294,26.6475542 L16.3743804,26.650707 Z M15.0067776,22.7160495 C14.5993845,22.2820182 14.4941843,21.4707053 14.9345813,22.1769258 C15.1614838,22.2694071 15.6565436,23.5042421 15.0067776,22.7160495 Z M12.4004936,18.315833 C11.9157475,17.2092106 12.7449728,17.7115521 12.508788,18.4965919 L12.4004936,18.315833 Z M7.93670387,15.282868 C7.73042892,14.9192484 7.36222815,13.8536121 7.47774212,13.5278258 C7.58087959,14.0574912 8.58337581,15.8083297 7.96867648,14.2634722 C7.29003192,12.9603271 8.78036839,14.6859434 8.93404322,15.0117297 C9.00623945,15.3343632 8.51530508,14.9234521 8.84740774,15.6822189 C8.24095941,14.8183598 8.48952072,16.1593381 7.93773524,15.2933772 L7.93670387,15.282868 Z M5.67283636,13.3764928 C5.15921175,12.8562857 4.78791685,12.3781155 5.69758935,13.0538593 C6.04825676,13.0675213 4.91890144,11.9640517 5.78216208,12.7028509 C6.68977183,12.8709986 6.22977871,14.2193334 5.67386773,13.3754419 L5.67283636,13.3764928 Z M5.98018603,12.5798928 C4.48675543,11.2242016 7.85728801,13.2871643 6.22359046,12.8321145 L5.98018603,12.5798928 Z M10.2583284,15.1126184 C9.61165641,14.7185221 10.0860888,12.3339767 10.306803,13.963959 C10.9359415,13.7569271 10.2717362,14.8067996 10.7399804,14.7962904 C10.6677841,15.4583722 10.4563523,15.6969318 10.2583284,15.1115674 L10.2583284,15.1126184 Z M6.28341019,12.1343013 C5.32423171,10.7859665 9.07121606,13.4983999 6.89810953,12.4758514 C6.67120709,12.4148979 6.39789279,12.3938794 6.28341019,12.1343013 Z M6.43089678,11.6193488 C7.001247,11.4953398 8.80305863,12.6387445 7.14770221,11.9451351 C6.96514888,11.7391541 6.57425786,11.8326863 6.43089678,11.6193488 Z M11.3258012,14.1058337 C11.3876837,12.9445633 11.6661548,13.4122242 11.3278639,14.2739814 L11.3258012,14.1058337 Z M6.85479179,11.2157942 C7.08788247,10.8689895 6.23802971,9.64676548 6.976494,10.7775591 C7.28590642,11.0360863 7.90163713,11.2105396 7.3684164,11.3198356 C8.20898679,12.0765005 7.16214145,11.5247657 6.85582316,11.2147433 L6.85479179,11.2157942 Z M10.5708349,10.5946984 C10.273799,10.0629312 10.9452239,8.25113913 11.0205143,9.37562723 C10.7080077,10.2520974 10.9307847,10.7418277 11.1473734,9.56479345 C11.5496095,8.63998081 11.0607379,11.3902475 10.5698035,10.5946984 L10.5708349,10.5946984 Z M11.7992022,23.5557374 C12.6480236,23.7785332 12.6449295,23.4212192 11.8765553,23.314025 C11.4640054,22.9230815 10.1624105,22.5079667 11.3278639,23.2656825 C11.4041857,23.4758672 11.6475901,23.4601033 11.7992022,23.5546865 L11.7992022,23.5557374 Z M8.78758801,21.5169459 C9.25480076,21.8742599 10.5481447,22.5237306 9.45385608,21.6535659 C9.82308823,21.2163818 8.74736439,20.9830768 9.10318867,20.69092 C8.19557892,20.1234214 8.38638324,20.1654583 9.02274144,20.1938333 C7.93154699,19.6967465 9.18054178,19.7345797 9.12175342,19.4792053 C8.70095253,19.3951314 7.03218824,18.7225404 8.01405697,19.5338533 C7.01568624,19.0157481 7.77684078,19.7272232 7.47464799,19.6526077 C6.44327327,19.3688583 8.38225774,20.445004 7.31272216,20.1780694 C7.89751163,20.650985 8.88866273,21.3897841 7.56025209,20.678309 C7.38491839,20.9347343 8.51117958,21.3246269 8.79790176,21.5190477 L8.78758801,21.5169459 Z M19.3911515,27.8550652 C19.8387681,27.4136774 19.4097162,28.5591839 20.1337413,27.7468201 C20.1409609,27.1656594 20.1131138,26.8220075 19.3024533,27.528228 C19.0786449,27.6543389 18.979633,28.1903098 19.3921829,27.8540143 L19.3911515,27.8550652 Z M12.0611714,23.0565487 C12.5593254,23.5084458 14.3487605,23.3875896 12.6655569,23.1122477 C12.418027,22.737068 11.0844595,22.8284984 12.0611714,23.0565487 Z M3.85761686,17.4414647 C3.13565455,16.3905413 3.40793748,15.9176257 2.71072817,15.0590213 C2.57871221,14.4021941 1.5143335,12.9119846 2.15997407,14.4915226 C2.75198316,15.4163352 2.92731686,16.8455911 3.85761686,17.4446175 L3.85761686,17.4414647 Z M21.3445752,28.1503747 C22.1016042,27.6532879 21.1692415,27.7300053 21.2074024,28.1955644 L21.3445752,28.1503747 Z M22.5595346,28.4856193 C23.5290269,27.7709914 21.971651,28.3489993 22.3563538,28.6222394 L22.5595346,28.4856193 Z M6.28444157,17.9143803 C6.99609012,18.0762225 9.12587892,19.6988483 7.86966451,18.0268291 C7.22608669,17.8324083 7.61182083,16.22975 6.95483513,16.5134993 C7.39523214,17.2638587 7.31581629,17.5833394 6.39170454,17.1104238 C5.22934523,16.5324159 5.73884434,17.396275 5.96574678,17.6358856 C5.65633436,17.7094502 6.37520254,17.9091257 6.28547294,17.9154312 L6.28444157,17.9143803 Z M3.04592495,15.3080901 C3.17278404,14.7721192 1.8732519,12.3549952 2.432257,14.0974263 C2.63337507,14.4620967 2.61274757,15.1536044 3.04592495,15.3080901 L3.04592495,15.3080901 Z M25.2906149,27.8203848 C25.9940124,27.6753573 27.5988315,28.1850552 27.8587379,27.6312185 C27.0026969,27.6102001 24.9017866,27.0164283 24.8027746,27.7720423 L24.9884221,27.80357 L25.2906149,27.8224866 L25.2906149,27.8203848 Z M3.36771386,12.2215279 C4.07729967,11.9377786 2.07540134,11.6330108 3.2233214,12.1689818 L3.36771386,12.2215279 Z M1.14922685,9.7014135 C1.02339913,8.95000323 1.04196387,7.63634891 2.26723704,8.07983861 C0.630445362,8.41193042 3.40174923,10.1543615 3.05108183,8.77765178 C3.74004014,8.81233226 4.39805721,8.36253702 4.03604468,9.04353541 C5.39436519,8.89325336 6.33291618,7.69309878 7.64482482,7.86229745 C8.67619954,7.72357556 9.78183324,7.62058506 10.8833414,7.20021568 C11.7878571,7.1340075 12.657306,6.14193576 12.1622461,5.55341863 C10.9287219,5.44832628 9.63744078,5.60386295 8.2739634,5.88130674 C6.76299944,6.20078747 5.39127106,6.80927215 3.86689923,7.06885025 C2.38171963,7.2727294 4.1659979,7.62899245 3.74004014,7.70991355 C2.9665091,7.98315365 4.66518326,8.16811618 3.63999679,8.45817105 C3.00673271,8.33521301 2.34768427,8.11346816 2.61893582,7.43352068 C1.19563871,7.62268691 -0.0554188253,8.22381512 1.06981099,9.69931165 L1.15232097,9.70036257 L1.14922685,9.7014135 Z M4.58164191,7.93060748 C4.91477594,6.67790672 6.36901429,8.96051246 5.12827051,8.09875523 C4.98078392,7.9852555 4.73634812,7.89382516 4.58164191,7.93060748 Z M5.25822372,7.33368296 C5.30257284,6.7577769 6.65883059,7.64895999 5.48203204,7.54071488 L5.25822372,7.33368296 Z M6.30816319,6.84395263 C6.8176623,6.22075502 9.18879277,6.44460171 7.44267538,6.78299907 C6.97855675,6.42568509 6.62066973,6.99318376 6.30816319,6.84395263 Z M10.2810186,6.35212045 C10.6007448,5.49456691 11.528982,6.00741756 10.4305679,6.179769 C10.4542896,6.27119934 10.3975639,6.6232587 10.2810186,6.35212045 Z M30.9384228,27.8350977 C31.7047342,27.8382505 33.2610787,27.5933853 31.5933458,27.5933853 C31.3313766,27.6354222 30.0669112,27.624913 30.9384228,27.8350977 Z M4.52801042,10.7397259 C5.148898,10.6976889 5.49750266,10.0429636 4.40733958,10.0797459 C2.71588504,9.90108895 5.89870742,10.6703649 4.20106464,10.449671 C3.97209945,10.6041567 4.5249163,10.7817628 4.53832417,10.7386749 L4.52801042,10.7397259 Z M3.66165566,5.74573762 C4.76935211,5.36215056 6.28341019,4.93127194 6.80734855,5.93490384 C6.2751592,5.2833313 6.59282261,4.64016614 7.09613347,5.59440464 C7.80778203,6.55915237 8.16257493,5.15511864 7.70051906,4.83143421 C8.22652016,5.49771968 8.8247175,5.81299672 8.05324921,4.87347115 C8.8938196,3.84356617 6.37210842,5.00798935 5.79866408,4.9964292 C5.52328703,5.12254001 2.95206985,5.66481651 3.66371841,5.74573762 L3.66165566,5.74573762 Z M4.31142173,4.47937486 C4.94262306,3.99384822 6.49587338,4.76837881 5.49956541,3.99595007 C5.40158481,3.90872342 3.31820788,4.58131443 4.31142173,4.47937486 Z M6.6134501,4.57605981 C7.3519144,4.59497644 6.29372394,3.56402053 7.17451795,4.03168147 C7.03012549,3.55035852 6.14933148,3.46103003 5.71821685,3.26766011 C5.47481241,3.70694612 6.21327671,4.58131443 6.61241873,4.57605981 L6.6134501,4.57605981 Z M5.65220887,2.67599021 C6.84344666,2.51519892 5.3489847,2.15368125 5.41189856,2.66337913 L5.65220887,2.67599021 Z M3.89474635,1.27826202 C3.0562387,0.16218131 5.47274966,1.46532639 4.61980277,0.297750435 C3.90196597,-0.283410234 3.21403903,0.95352667 3.89474635,1.27826202 L3.89474635,1.27826202 Z M14.6561102,7.18445183 C15.0408129,6.49084235 13.0677931,6.24912995 14.3982665,6.93853574 C14.5199687,6.98057268 14.493153,7.2327943 14.6561102,7.18445183 Z" id="Shape"></path>
</g>
</g>
</svg>
